HIERARCHY
ROOT Hips
{
	OFFSET 0.00000 0.00000 0.00000
	CHANNELS 6 Xposition Yposition Zposition Zrotation Yrotation Xrotation 
	JOINT LHipJoint
	{
		OFFSET 0 0 0
		CHANNELS 3 Zrotation Yrotation Xrotation
		JOINT LeftHip
		{
			OFFSET 1.82298 -1.58346 0.87084
			CHANNELS 3 Zrotation Yrotation Xrotation
			JOINT LeftKnee
			{
				OFFSET 2.43790 -6.69809 0.00000
				CHANNELS 3 Zrotation Yrotation Xrotation
				JOINT LeftAnkle
				{
					OFFSET 2.59288 -7.12389 0.00000
					CHANNELS 3 Zrotation Yrotation Xrotation
					JOINT LeftToe
					{
						OFFSET 0.14552 -0.39981 2.13160
						CHANNELS 3 Zrotation Yrotation Xrotation
						End Site
						{
							OFFSET 0.00000 -0.00000 1.09427
						}
					}
				}
			}
		}
	}
	JOINT RHipJoint
	{
		OFFSET 0 0 0
		CHANNELS 3 Zrotation Yrotation Xrotation
		JOINT RightHip
		{
			OFFSET -1.77229 -1.58346 0.87084
			CHANNELS 3 Zrotation Yrotation Xrotation
			JOINT RightKnee
			{
				OFFSET -2.50703 -6.88801 0.00000
				CHANNELS 3 Zrotation Yrotation Xrotation
				JOINT RightAnkle
				{
					OFFSET -2.61620 -7.18796 0.00000
					CHANNELS 3 Zrotation Yrotation Xrotation
					JOINT RightToe
					{
						OFFSET -0.15190 -0.41735 2.15974
						CHANNELS 3 Zrotation Yrotation Xrotation
						End Site
						{
							OFFSET -0.00000 -0.00000 1.10919
						}
					}
				}
			}
		}
	}
	JOINT lowerback
	{
		OFFSET 0 0 0
		CHANNELS 3 Zrotation Yrotation Xrotation
		JOINT Chest
		{
			OFFSET -0.03602 2.12423 -0.30249
			CHANNELS 3 Zrotation Yrotation Xrotation
			JOINT Chest2
			{
				OFFSET 0.02717 2.10043 0.12912
				CHANNELS 3 Zrotation Yrotation Xrotation
				JOINT lowerneck
				{
					OFFSET 0 0 0
					CHANNELS 3 Zrotation Yrotation Xrotation
					JOINT Neck
					{
						OFFSET -0.06371 1.88656 0.11602
						CHANNELS 3 Zrotation Yrotation Xrotation
						JOINT Head
						{
							OFFSET 0.08208 1.87759 -0.11505
							CHANNELS 3 Zrotation Yrotation Xrotation
							End Site
							{
								OFFSET 0.03382 1.93090 -0.05483
							}
						}
					}
				}
				JOINT LeftCollar
				{
					OFFSET 0 0 0
					CHANNELS 3 Zrotation Yrotation Xrotation
					JOINT LeftShoulder
					{
						OFFSET 3.30903 1.40357 0.20156
CHANNELS 3 Zrotation Xrotation Yrotation
						JOINT LeftElbow
						{
OFFSET 0 -5.433010 0.000000
CHANNELS 3 Zrotation Xrotation Yrotation
							JOINT LeftWrist
							{
OFFSET 0 -3.159360 0.000000
CHANNELS 3 Zrotation Xrotation Yrotation
								JOINT lhand
								{
									OFFSET 0 0 0
CHANNELS 3 Zrotation Xrotation Yrotation
									JOINT LFingers
									{
OFFSET 0 -0.712830 0.000000
CHANNELS 3 Zrotation Xrotation Yrotation
										End Site
										{
OFFSET 0 -0.574700 0.000000
										}
									}
								}
								JOINT LThumb
								{
OFFSET 0 0.000000 0.000000
CHANNELS 3 Zrotation Xrotation Yrotation
									End Site
									{
OFFSET 0 -0.583470 0.583470
									}
								}
							}
						}
					}
				}
				JOINT RightCollar
				{
					OFFSET 0 0 0
					CHANNELS 3 Zrotation Yrotation Xrotation
					JOINT RightShoulder
					{
						OFFSET -3.12947 1.60037 -0.00464
CHANNELS 3 Zrotation Xrotation Yrotation
						JOINT RightElbow
						{
OFFSET 0 -5.341940 0.000000
CHANNELS 3 Zrotation Xrotation Yrotation
							JOINT RightWrist
							{
OFFSET 0 -3.193510 0.000000
CHANNELS 3 Zrotation Xrotation Yrotation
								JOINT rhand
								{
									OFFSET 0 0 0
CHANNELS 3 Zrotation Xrotation Yrotation
									JOINT RFingers
									{
OFFSET 0 -0.743860 0.000000
CHANNELS 3 Zrotation Xrotation Yrotation
										End Site
										{
OFFSET 0 -0.599720 0.000000
										}
									}
								}
								JOINT RThumb
								{
OFFSET 0 0.000000 0.000000
CHANNELS 3 Zrotation Xrotation Yrotation
									End Site
									{
OFFSET 0 -0.608880 0.608880
									}
								}
							}
						}
					}
				}
			}
		}
	}
}
MOTION
Frames: 6
Frame Time: 0.008333333333333333
-5.981954 10.981718 30.835939 -141.580060 80.557858 -134.546838 0.000000 0.000000 0.000000 17.995061 10.775659 -71.351066 24.263722 19.558430 102.555044 3.624465 -11.331394 -34.482307 1.834227 -8.511848 -24.279885 0.000000 0.000000 0.000000 -4.549323 -16.550204 -57.425364 -23.787540 -19.652428 101.136005 -4.026212 1.504734 -37.740086 -4.088444 12.277160 -36.719693 5.326167 6.169812 21.524652 0.242625 9.699304 -2.558076 -5.863230 4.010475 -14.122307 3.851404 12.801628 -1.554209 -3.599702 17.290711 6.436406 -1.162535 8.603105 3.046314 0.000000 0.000000 0.000000 22.744412 -18.412976 -11.773224 128.084666 -53.739352 92.288748 33.019672 -27.899867 -16.581331 0.000000 0.000000 0.000000 -7.125000 0.000000 0.000000 5.169746 49.460825 -0.570192 0.000000 0.000000 0.000000 -27.077698 -31.656810 78.832011 -122.308444 -55.662677 -87.572472 -20.526829 16.953105 26.918789 0.000000 0.000000 0.000000 7.125000 0.000000 0.000000 10.817109 58.116769 -3.498114
-6.007285 11.111408 30.739713 -139.141958 80.067482 -131.572080 0.000000 0.000000 0.000000 17.981324 10.094225 -71.506030 24.047275 19.602610 101.909236 3.549999 -11.137184 -34.112344 1.668112 -8.137589 -23.132911 0.000000 0.000000 0.000000 -3.693393 -15.790160 -57.159111 -23.155474 -19.759388 99.261681 -3.812398 0.849849 -36.863773 -4.158482 12.368285 -37.047526 5.665752 5.973644 21.789981 0.477265 9.578684 -2.459529 -5.777670 3.938547 -14.164511 3.717187 12.905945 -1.573424 -3.697735 17.402967 5.871123 -1.187938 8.653770 2.857775 0.000000 0.000000 0.000000 22.690019 -18.982948 -12.001267 127.698965 -53.882391 91.977459 33.145327 -28.078638 -16.999252 0.000000 0.000000 0.000000 -7.125000 0.000000 0.000000 5.267465 49.965347 -0.646696 0.000000 0.000000 0.000000 -27.782372 -31.534957 78.103598 -121.232150 -55.972416 -86.682065 -20.397694 16.921689 26.913867 0.000000 0.000000 0.000000 7.125000 0.000000 0.000000 10.953527 58.083063 -3.534153
-6.027818 11.282914 30.597033 -138.200100 79.568722 -129.982720 0.000000 0.000000 0.000000 17.488279 9.000279 -71.587326 23.751746 19.659134 101.029488 3.485305 -10.671097 -33.792674 1.477140 -7.679536 -21.744886 0.000000 0.000000 0.000000 -3.111804 -15.201947 -56.608157 -22.301591 -19.872199 96.743383 -3.558094 0.398250 -35.709219 -4.207604 12.431683 -37.276812 5.760195 5.802171 22.044701 0.702834 9.426486 -2.384630 -5.560144 3.866618 -14.270151 3.604949 12.859264 -1.645275 -3.800427 17.310256 5.271672 -1.225503 8.603827 2.662889 0.000000 0.000000 0.000000 22.546123 -19.720003 -12.677444 127.408335 -53.988783 91.742455 34.062814 -28.202682 -17.361584 0.000000 0.000000 0.000000 -7.125000 0.000000 0.000000 6.183153 50.554435 -0.849178 0.000000 0.000000 0.000000 -28.739664 -31.353407 77.030341 -119.884339 -56.340527 -85.562593 -20.075714 17.016451 26.964280 0.000000 0.000000 0.000000 7.125000 0.000000 0.000000 11.326206 58.062131 -3.650744
-6.037879 11.491612 30.400854 -138.187554 79.038728 -129.243796 0.000000 0.000000 0.000000 16.436913 7.888916 -71.720395 23.399351 19.720624 99.983705 3.474431 -9.528096 -33.775035 1.468440 -7.657850 -21.679721 0.000000 0.000000 0.000000 -2.729635 -14.788418 -55.705584 -21.210509 -19.964468 93.541283 -3.263397 0.170373 -34.238620 -4.188858 12.407546 -37.189215 5.736344 5.609992 22.190430 0.953960 9.213819 -2.330781 -5.217127 3.779924 -14.366760 3.620073 12.866599 -1.638288 -4.111059 17.299389 4.587913 -1.348366 8.595597 2.465733 0.000000 0.000000 0.000000 22.237608 -20.624234 -13.749347 126.860439 -54.185895 91.298755 33.527504 -27.578514 -17.224908 0.000000 0.000000 0.000000 -7.125000 0.000000 0.000000 5.641639 50.296038 -0.738514 0.000000 0.000000 0.000000 -29.951510 -30.969446 75.807176 -118.773164 -56.628031 -84.636220 -20.123021 16.832180 26.588508 0.000000 0.000000 0.000000 7.125000 0.000000 0.000000 11.077449 57.695471 -3.471173
-6.036511 11.752790 30.149531 -139.108629 78.518703 -129.237195 0.000000 0.000000 0.000000 14.899668 6.715119 -71.764157 22.900050 19.797128 98.506879 3.438608 -9.078706 -33.614299 1.410378 -7.511146 -21.239004 0.000000 0.000000 0.000000 -2.489931 -14.412057 -54.452289 -19.822517 -19.998906 89.481023 -2.905233 -0.255130 -32.411500 -4.191607 12.411077 -37.202334 5.571061 5.409300 22.054180 1.148960 8.923800 -2.303575 -4.801307 3.676386 -14.347215 3.574126 12.842581 -1.852525 -4.261025 17.233680 3.915988 -1.400065 8.560675 2.287313 0.000000 0.000000 0.000000 21.871350 -21.622716 -15.053932 126.177447 -54.425450 90.744101 33.662638 -26.404692 -17.023722 0.000000 0.000000 0.000000 -7.125000 0.000000 0.000000 5.793106 50.088229 -0.728780 0.000000 0.000000 0.000000 -31.153561 -30.217892 74.357697 -117.842592 -56.857917 -83.858010 -20.175902 16.811661 26.808551 0.000000 0.000000 0.000000 7.125000 0.000000 0.000000 11.136112 57.928068 -3.552471
-6.016975 12.071488 29.840137 -142.292117 78.089446 -131.458437 0.000000 0.000000 0.000000 12.384916 5.538372 -71.557078 22.180377 19.885563 96.386821 3.400301 -9.011358 -33.420313 1.428454 -7.557373 -21.377614 0.000000 0.000000 0.000000 -2.784382 -14.094306 -52.486498 -18.122228 -19.915018 84.502370 -2.468505 -0.799536 -30.043160 -4.157862 12.367583 -37.045011 5.101055 5.323951 21.650963 1.226383 8.662375 -2.212797 -4.323117 3.619019 -14.112949 3.797188 12.645951 -1.990438 -4.595517 16.929367 2.938356 -1.573802 8.412841 2.030980 0.000000 0.000000 0.000000 21.331643 -22.853263 -17.158711 125.621991 -54.615501 90.291789 33.128290 -27.028148 -16.874391 0.000000 0.000000 0.000000 -7.125000 0.000000 0.000000 5.258954 49.818112 -0.626180 0.000000 0.000000 0.000000 -32.215001 -28.572501 72.059285 -116.733969 -57.119181 -82.928346 -20.016917 17.191977 26.937860 0.000000 0.000000 0.000000 7.125000 0.000000 0.000000 11.374989 58.022710 -3.655907
